# xmcd CD database file
#
# Track frame offsets:
#	150
#	25228
#	62715
#	98378
#	120305
#	151780
#	180908
#	207833
#
# Disc length: 3143 seconds
#
# Revision: 0
# Processed by: cddbd v1.5.2PL0 Copyright (c) Steve Scherf et al.
# Submitted via: CDex 1.70beta2
#
DISCID=510c4508
DTITLE=Calderazzo, Joey - In the door
DYEAR=1991
DGENRE=Jazz
TTITLE0=In the door
TTITLE1=Mikell's
TTITLE2=Spring is here
TTITLE3=The missed
TTITLE4=Dome's mode
TTITLE5=Loud-Zee
TTITLE6=Chubby's lament
TTITLE7=Pest
EXTD=YEAR: 1991
EXTT0=
EXTT1=
EXTT2=
EXTT3=
EXTT4=
EXTT5=
EXTT6=
EXTT7=
PLAYORDER=
